<mxfile host="app.diagrams.net" agent="Mozilla/5.0 (Windows NT 10.0; Win64; x64) AppleWebKit/537.36 (KHTML, like Gecko) Chrome/126.0.0.0 Safari/537.36" version="24.7.5">
  <diagram name="Page-1" id="A4nDBd5vze5nCZSp6XvO">
    <mxGraphModel dx="2835" dy="928" grid="1" gridSize="10" guides="1" tooltips="1" connect="1" arrows="1" fold="1" page="1" pageScale="1" pageWidth="850" pageHeight="1100" math="0" shadow="0">
      <root>
        <mxCell id="0" />
        <mxCell id="1" parent="0" />
        <mxCell id="VnZv7m8SnQrTQ3DU9ytM-1" value="&lt;font style=&quot;font-size: 24px;&quot;&gt;Teacher&lt;/font&gt;" style="shape=umlActor;verticalLabelPosition=bottom;verticalAlign=top;html=1;outlineConnect=0;" parent="1" vertex="1">
          <mxGeometry x="670" y="70" width="100" height="220" as="geometry" />
        </mxCell>
        <mxCell id="VnZv7m8SnQrTQ3DU9ytM-2" value="" style="rounded=0;whiteSpace=wrap;html=1;" parent="1" vertex="1">
          <mxGeometry x="70" y="40" width="338" height="850" as="geometry" />
        </mxCell>
        <mxCell id="VnZv7m8SnQrTQ3DU9ytM-17" value="&lt;font style=&quot;font-size: 36px;&quot;&gt;Student Info&lt;/font&gt;" style="rounded=0;whiteSpace=wrap;html=1;" parent="1" vertex="1">
          <mxGeometry x="90" y="140" width="298" height="60" as="geometry" />
        </mxCell>
        <mxCell id="VnZv7m8SnQrTQ3DU9ytM-22" value="&lt;font style=&quot;font-size: 36px;&quot;&gt;Dashboard&lt;/font&gt;" style="rounded=0;whiteSpace=wrap;html=1;" parent="1" vertex="1">
          <mxGeometry x="90" y="60" width="298" height="60" as="geometry" />
        </mxCell>
        <mxCell id="VnZv7m8SnQrTQ3DU9ytM-23" value="&lt;font style=&quot;font-size: 36px;&quot;&gt;Teacher Info&lt;/font&gt;" style="rounded=0;whiteSpace=wrap;html=1;" parent="1" vertex="1">
          <mxGeometry x="90" y="210" width="298" height="60" as="geometry" />
        </mxCell>
        <mxCell id="VnZv7m8SnQrTQ3DU9ytM-25" value="&lt;font style=&quot;font-size: 36px;&quot;&gt;Teacher&amp;nbsp;&lt;/font&gt; &lt;font style=&quot;font-size: 36px;&quot;&gt;Load&lt;/font&gt;" style="rounded=0;whiteSpace=wrap;html=1;" parent="1" vertex="1">
          <mxGeometry x="90" y="280" width="300" height="60" as="geometry" />
        </mxCell>
        <mxCell id="VnZv7m8SnQrTQ3DU9ytM-26" value="&lt;font style=&quot;font-size: 36px;&quot;&gt;Lecture Materials&lt;/font&gt;" style="rounded=0;whiteSpace=wrap;html=1;" parent="1" vertex="1">
          <mxGeometry x="90" y="350" width="300" height="60" as="geometry" />
        </mxCell>
        <mxCell id="VnZv7m8SnQrTQ3DU9ytM-27" value="&lt;font style=&quot;font-size: 36px;&quot;&gt;Test Management&lt;/font&gt;" style="rounded=0;whiteSpace=wrap;html=1;" parent="1" vertex="1">
          <mxGeometry x="90" y="420" width="300" height="60" as="geometry" />
        </mxCell>
        <mxCell id="VnZv7m8SnQrTQ3DU9ytM-29" value="&lt;span style=&quot;font-size: 36px;&quot;&gt;View Course&lt;/span&gt;" style="rounded=0;whiteSpace=wrap;html=1;" parent="1" vertex="1">
          <mxGeometry x="90" y="490" width="300" height="60" as="geometry" />
        </mxCell>
        <mxCell id="VnZv7m8SnQrTQ3DU9ytM-30" value="&lt;font style=&quot;font-size: 36px;&quot;&gt;Reports&lt;/font&gt;" style="rounded=0;whiteSpace=wrap;html=1;" parent="1" vertex="1">
          <mxGeometry x="90" y="570" width="300" height="60" as="geometry" />
        </mxCell>
        <mxCell id="VnZv7m8SnQrTQ3DU9ytM-31" value="&lt;font style=&quot;font-size: 36px;&quot;&gt;Database Backup&lt;/font&gt;" style="rounded=0;whiteSpace=wrap;html=1;" parent="1" vertex="1">
          <mxGeometry x="90" y="640" width="300" height="60" as="geometry" />
        </mxCell>
        <mxCell id="5IwmWQXbdXqAQ3gosbKJ-4" value="&lt;font style=&quot;font-size: 24px;&quot;&gt;Student&lt;/font&gt;" style="shape=umlActor;verticalLabelPosition=bottom;verticalAlign=top;html=1;outlineConnect=0;" parent="1" vertex="1">
          <mxGeometry x="-210" y="230" width="100" height="200" as="geometry" />
        </mxCell>
        <mxCell id="5IwmWQXbdXqAQ3gosbKJ-6" value="" style="endArrow=classic;html=1;rounded=0;entryX=1;entryY=0.5;entryDx=0;entryDy=0;" parent="1" target="VnZv7m8SnQrTQ3DU9ytM-25" edge="1">
          <mxGeometry width="50" height="50" relative="1" as="geometry">
            <mxPoint x="670" y="170" as="sourcePoint" />
            <mxPoint x="550" y="310" as="targetPoint" />
          </mxGeometry>
        </mxCell>
        <mxCell id="5IwmWQXbdXqAQ3gosbKJ-7" value="" style="endArrow=classic;html=1;rounded=0;entryX=1;entryY=0.5;entryDx=0;entryDy=0;" parent="1" target="VnZv7m8SnQrTQ3DU9ytM-26" edge="1">
          <mxGeometry width="50" height="50" relative="1" as="geometry">
            <mxPoint x="670" y="170" as="sourcePoint" />
            <mxPoint x="550" y="380" as="targetPoint" />
          </mxGeometry>
        </mxCell>
        <mxCell id="5IwmWQXbdXqAQ3gosbKJ-8" value="" style="endArrow=classic;html=1;rounded=0;entryX=1;entryY=0.75;entryDx=0;entryDy=0;" parent="1" target="VnZv7m8SnQrTQ3DU9ytM-27" edge="1">
          <mxGeometry width="50" height="50" relative="1" as="geometry">
            <mxPoint x="670" y="170" as="sourcePoint" />
            <mxPoint x="490" y="370" as="targetPoint" />
          </mxGeometry>
        </mxCell>
        <mxCell id="5IwmWQXbdXqAQ3gosbKJ-9" value="" style="endArrow=classic;html=1;rounded=0;entryX=1;entryY=0.75;entryDx=0;entryDy=0;" parent="1" target="VnZv7m8SnQrTQ3DU9ytM-29" edge="1">
          <mxGeometry width="50" height="50" relative="1" as="geometry">
            <mxPoint x="670" y="170" as="sourcePoint" />
            <mxPoint x="490" y="370" as="targetPoint" />
          </mxGeometry>
        </mxCell>
        <mxCell id="5IwmWQXbdXqAQ3gosbKJ-10" value="" style="endArrow=classic;html=1;rounded=0;entryX=1;entryY=0.5;entryDx=0;entryDy=0;" parent="1" target="VnZv7m8SnQrTQ3DU9ytM-30" edge="1">
          <mxGeometry width="50" height="50" relative="1" as="geometry">
            <mxPoint x="670" y="170" as="sourcePoint" />
            <mxPoint x="490" y="370" as="targetPoint" />
          </mxGeometry>
        </mxCell>
        <mxCell id="5IwmWQXbdXqAQ3gosbKJ-14" value="" style="endArrow=classic;html=1;rounded=0;entryX=0;entryY=0.75;entryDx=0;entryDy=0;" parent="1" target="VnZv7m8SnQrTQ3DU9ytM-26" edge="1">
          <mxGeometry width="50" height="50" relative="1" as="geometry">
            <mxPoint x="-110" y="330" as="sourcePoint" />
            <mxPoint x="490" y="370" as="targetPoint" />
          </mxGeometry>
        </mxCell>
        <mxCell id="5IwmWQXbdXqAQ3gosbKJ-15" value="" style="endArrow=classic;html=1;rounded=0;entryX=0.059;entryY=0.5;entryDx=0;entryDy=0;entryPerimeter=0;" parent="1" target="VnZv7m8SnQrTQ3DU9ytM-2" edge="1">
          <mxGeometry width="50" height="50" relative="1" as="geometry">
            <mxPoint x="-110" y="330" as="sourcePoint" />
            <mxPoint x="490" y="370" as="targetPoint" />
          </mxGeometry>
        </mxCell>
        <mxCell id="5IwmWQXbdXqAQ3gosbKJ-16" value="" style="endArrow=classic;html=1;rounded=0;entryX=0;entryY=0.75;entryDx=0;entryDy=0;" parent="1" target="VnZv7m8SnQrTQ3DU9ytM-29" edge="1">
          <mxGeometry width="50" height="50" relative="1" as="geometry">
            <mxPoint x="-110" y="330" as="sourcePoint" />
            <mxPoint x="490" y="370" as="targetPoint" />
          </mxGeometry>
        </mxCell>
        <mxCell id="qdHA4SfD_U8EXuFvCVwc-2" value="&lt;font style=&quot;font-size: 24px;&quot;&gt;Download Study Materials&lt;/font&gt;" style="rounded=0;whiteSpace=wrap;html=1;" vertex="1" parent="1">
          <mxGeometry x="90" y="710" width="300" height="60" as="geometry" />
        </mxCell>
        <mxCell id="qdHA4SfD_U8EXuFvCVwc-4" value="&lt;font style=&quot;font-size: 36px;&quot;&gt;View Results&lt;/font&gt;" style="rounded=0;whiteSpace=wrap;html=1;" vertex="1" parent="1">
          <mxGeometry x="90" y="790" width="300" height="60" as="geometry" />
        </mxCell>
        <mxCell id="qdHA4SfD_U8EXuFvCVwc-5" value="" style="endArrow=classic;html=1;rounded=0;entryX=0;entryY=0.75;entryDx=0;entryDy=0;" edge="1" parent="1" target="qdHA4SfD_U8EXuFvCVwc-4">
          <mxGeometry width="50" height="50" relative="1" as="geometry">
            <mxPoint x="-110" y="330" as="sourcePoint" />
            <mxPoint x="360" y="510" as="targetPoint" />
          </mxGeometry>
        </mxCell>
        <mxCell id="qdHA4SfD_U8EXuFvCVwc-6" value="" style="endArrow=classic;html=1;rounded=0;entryX=1;entryY=0.5;entryDx=0;entryDy=0;" edge="1" parent="1" target="qdHA4SfD_U8EXuFvCVwc-4">
          <mxGeometry width="50" height="50" relative="1" as="geometry">
            <mxPoint x="670" y="170" as="sourcePoint" />
            <mxPoint x="360" y="510" as="targetPoint" />
          </mxGeometry>
        </mxCell>
        <mxCell id="qdHA4SfD_U8EXuFvCVwc-7" value="" style="endArrow=classic;html=1;rounded=0;entryX=0;entryY=0.5;entryDx=0;entryDy=0;" edge="1" parent="1" target="qdHA4SfD_U8EXuFvCVwc-2">
          <mxGeometry width="50" height="50" relative="1" as="geometry">
            <mxPoint x="-110" y="330" as="sourcePoint" />
            <mxPoint x="360" y="510" as="targetPoint" />
          </mxGeometry>
        </mxCell>
      </root>
    </mxGraphModel>
  </diagram>
</mxfile>
